<svg width="9.7893mm" height="9.5961mm" version="1.1" viewBox="0 0 9.7893 9.5961" xmlns="http://www.w3.org/2000/svg">
 <g transform="translate(-69.321 -112.98)">
  <g transform="translate(55.135 99.288)" fill="none" stroke="#fff">
   <g transform="translate(1.9861 -.14202)" stroke-width=".26458px">
    <path d="m17.032 20.797-0.05157-3.146c0.08734 0.52338 0.09323 1.0605 0.699 1.0941 0.03552 2e-3 0.54484 0.13154 0.58491 0.13084 0.3396-0.13146 0.66898-0.04023 0.86932-0.5931 0.0043-0.9205 0.0086-2.0028 0.01289-3.0042"/>
    <path d="m17.079 20.138c-7e-4 0.19061-0.0014 0.38121-0.0021 0.57181m-0.94717-1.1248c-0.1934 0.04728-0.38681 0.09456-0.52219 0.26862-0.13538 0.17406-0.21274 0.47492-0.05372 0.86387 0.15902 0.38896 0.55442 0.86602 0.61889 1.2442 0.06447 0.37821-0.202 0.65757-0.42119 0.78866-0.21919 0.13108-0.39111 0.1139-0.56302 0.09671"/>
    <path d="m16.053 19.585 0.46417-0.01289 0.16762 0.12894 0.09025 0.32234 0.2063 0.45127 0.05157 0.27076"/>
   </g>
   <g>
    <path d="m19.085 23.135c2.6184 2.61e-4 4.7409-2.0738 4.7408-4.6318-1e-4 -1.7052-0.94405-3.1944-2.3487-3.9982" stroke-width=".3"/>
    <path d="m19.077 13.839c-2.6182 6.3e-5 -4.7406 2.0735-4.7408 4.6312-1.14e-4 2.0652 1.3838 3.8142 3.2949 4.4116" stroke-width=".3"/>
    <path d="m21.133 15.24v-1.0186l0.51574 0.36102" stroke-width=".265"/>
   </g>
  </g>
 </g>
</svg>
