<svg width="141.54mm" height="84.681mm" version="1.1" viewBox="0 0 141.54 84.681" xmlns="http://www.w3.org/2000/svg" xmlns:xlink="http://www.w3.org/1999/xlink">
 <defs>
  <linearGradient id="linearGradient3" x1="129.24" x2="239.53" y1="126.04" y2="84.899" gradientTransform="translate(-102.01 -14.227)" gradientUnits="userSpaceOnUse">
   <stop stop-color="#0f69fb" offset="0"/>
   <stop stop-color="#cb96de" offset="1"/>
  </linearGradient>
 </defs>
 <g transform="translate(-7.9375 -56.885)">
  <path d="m8.5662 127.56c-1.0268-6.165-1.522-12.575 4.4794-21.984 4.7843-7.1648 11.065-12.751 20.782-14.708 6.0069-2.2338 11.911-0.32918 17.918 0.224l6.106-2.6758c1.0329-1.8881 3.3191-4.0152 4.5701-5.3944 1.3007-1.434 2.7089-2.6172 4.2031-3.5997 4.7537-3.5583 10.284-6.1678 17.505-6.7102 8.6415-0.98672 11.604 1.4518 16.406 2.4194l6.6425-2.4194c3.825-8.8067 11.932-13.458 18.38-13.42l12.545 1.7505 11.378 14.296-7.5855 15.463-4.3762 16.921 11.086 10.795-2.0422 18.38-19.547 4.668-25.382-5.5432-31.217-3.7927-12.545 7.002-31.217-6.4185-11.086 3.501z" fill="url(#linearGradient3)" stroke-width=".26458"/>
  <circle cx="46.585" cy="80.141" r="7.002" fill="#5775e5" stroke-width=".26458"/>
  <circle cx="85.661" cy="61.262" r="4.3762" fill="#8486ea" stroke-width=".16536"/>
 </g>
</svg>
